<svg xmlns="http://www.w3.org/2000/svg" width="17" height="15" viewBox="0 0 17 15"><path fill="#fff" d="M17.006 2.203a7.14 7.14 0 01-2.06.564A3.593 3.593 0 0016.524.781a7.21 7.21 0 01-2.28.873 3.59 3.59 0 00-6.117 3.273 10.183 10.183 0 01-7.4-3.751A3.595 3.595 0 001.838 5.97a3.587 3.587 0 01-1.627-.451v.047a3.593 3.593 0 002.881 3.52 3.603 3.603 0 01-1.62.06 3.59 3.59 0 003.35 2.494 7.199 7.199 0 01-5.314 1.486 10.176 10.176 0 005.504 1.613c6.604 0 10.215-5.47 10.215-10.214 0-.155-.004-.31-.012-.465a7.29 7.29 0 001.791-1.857z"/></svg>